# xmcd
#
# Track frame offsets:
#	150
#	28185
#	46562
#	63443
#	83974
#	101682
#	130834
#	146836
#	170871
#	197550
#	217071
#	229671
#
# Disc length: 3336 seconds
#
# Revision: 6
# Processed by: cddbd v1.4PL0 Copyright (c) Steve Scherf et al.
# Submitted via: MusicWizard 6.0.2
#
DISCID=ae0d060c
DTITLE=Mark Knopfler - The Ragpicker's Dream
DYEAR=2002
DGENRE=Rock - Pop
TTITLE0=Why Aye Man
TTITLE1=Devil Baby
TTITLE2=Hill Farmer's Blues
TTITLE3=A Place Where We Used To Live
TTITLE4=Quality Shoe
TTITLE5=Fare Thee Well Northumberland
TTITLE6=Marbletown
TTITLE7=You Don't Know You're Born
TTITLE8=Coyote
TTITLE9=The Ragpicker's Dream
TTITLE10=Daddy's Gone To Knoxville
TTITLE11=Old Pigweed
EXTD=
EXTT0=
EXTT1=
EXTT2=
EXTT3=
EXTT4=
EXTT5=
EXTT6=
EXTT7=
EXTT8=
EXTT9=
EXTT10=
EXTT11=
PLAYORDER=
